<svg width="208" height="64" viewBox="0 0 208 64" fill="none" xmlns="http://www.w3.org/2000/svg">
<path d="M72.0875 48.6929H65.7781V55.0985H64.6355V41.4033H73.0172V42.3819H65.7781V47.7155H72.0875V48.6929Z" fill="#1B0707"/>
<path d="M80.9267 45.8811C80.691 45.8372 80.4401 45.8152 80.174 45.8152C79.4799 45.8152 78.8934 46.0109 78.4133 46.4034C77.9333 46.7959 77.5911 47.3643 77.3869 48.1109V55.1003H76.2812V44.9224H77.3685L77.3869 46.5408C77.9756 45.3369 78.9206 44.7344 80.2207 44.7344C80.5302 44.7344 80.7746 44.7751 80.9549 44.8564L80.9267 45.8811Z" fill="#1B0707"/>
<path d="M90.1001 55.1011C89.9882 54.7811 89.9176 54.3083 89.8861 53.6805C89.4962 54.1951 88.9987 54.592 88.3948 54.8702C87.7909 55.1494 87.1512 55.2891 86.4756 55.2891C85.509 55.2891 84.7269 55.0164 84.1296 54.4711C83.5322 53.9257 83.2324 53.2352 83.2324 52.4018C83.2324 51.4112 83.6397 50.6272 84.4543 50.05C85.2689 49.4728 86.4039 49.1847 87.8604 49.1847H89.8774V48.0281C89.8774 47.3002 89.6558 46.7285 89.2127 46.3118C88.7695 45.8951 88.1233 45.6862 87.275 45.6862C86.5006 45.6862 85.8598 45.8863 85.3515 46.2887C84.8432 46.69 84.589 47.1727 84.589 47.7367L83.4735 47.7279C83.4735 46.9187 83.845 46.2183 84.589 45.6257C85.3319 45.0331 86.2464 44.7373 87.3304 44.7373C88.4513 44.7373 89.3365 45.021 89.9838 45.5883C90.6312 46.1556 90.9646 46.9473 90.9831 47.9632V52.78C90.9831 53.7652 91.0852 54.5018 91.2894 54.9911V55.1044H90.1001V55.1011ZM86.606 54.2918C87.3489 54.2918 88.0136 54.1104 88.599 53.7465C89.1844 53.3826 89.6102 52.8966 89.8763 52.2886V50.05H87.8876C86.7787 50.0621 85.9119 50.2677 85.2852 50.6657C84.6596 51.0637 84.3468 51.6113 84.3468 52.3073C84.3468 52.8779 84.5553 53.3518 84.9746 53.7278C85.3927 54.1038 85.9369 54.2918 86.606 54.2918Z" fill="#1B0707"/>
<path d="M96.0011 44.9224L96.038 46.6629C96.416 46.0351 96.8863 45.5579 97.45 45.228C98.0137 44.8993 98.6361 44.7344 99.3182 44.7344C100.396 44.7344 101.198 45.0422 101.725 45.6557C102.252 46.2704 102.518 47.1928 102.524 48.421V55.1003H101.419V48.4122C101.412 47.5029 101.222 46.8256 100.847 46.3803C100.473 45.935 99.8732 45.7129 99.0488 45.7129C98.3613 45.7129 97.752 45.9306 97.223 46.3671C96.693 46.8025 96.3009 47.3907 96.0478 48.1307V55.1014H94.9421V44.9235H96.0011V44.9224Z" fill="#1B0707"/>
<path d="M108.777 49.9734L107.504 51.2147V55.0992H106.389V40.6509H107.504V49.8976L108.555 48.7497L112.402 44.9213H113.805L109.54 49.2104L114.177 55.0992H112.848L108.777 49.9734Z" fill="#1B0707"/>
<path d="M117.727 55.1008V45.8443H116.064V44.9229H117.727V43.6904C117.727 42.6492 117.989 41.8498 118.512 41.2913C119.036 40.7328 119.766 40.4546 120.701 40.4546C121.122 40.4546 121.515 40.5074 121.88 40.6129L121.797 41.5453C121.487 41.4705 121.149 41.432 120.784 41.432C120.171 41.432 119.694 41.6255 119.353 42.0115C119.012 42.3985 118.842 42.9471 118.842 43.6574V44.9218H121.239V45.8432H118.842V55.0997H117.727V55.1008Z" fill="#1B0707"/>
<path d="M130.69 53.8141C130.021 54.7982 128.952 55.2908 127.484 55.2908C126.412 55.2908 125.597 54.9752 125.04 54.3452C124.483 53.7152 124.197 52.7817 124.185 51.547V44.9248H125.291V51.4063C125.291 53.3436 126.065 54.3133 127.614 54.3133C129.225 54.3133 130.244 53.6393 130.671 52.2903V44.9248H131.787V55.1027H130.709L130.69 53.8141Z" fill="#1B0707"/>
<path d="M140.318 45.8811C140.082 45.8372 139.831 45.8152 139.565 45.8152C138.871 45.8152 138.285 46.0109 137.804 46.4034C137.324 46.7959 136.982 47.3643 136.778 48.1109V55.1003H135.672V44.9224H136.76L136.778 46.5408C137.367 45.3369 138.312 44.7344 139.612 44.7344C139.921 44.7344 140.166 44.7751 140.346 44.8564L140.318 45.8811Z" fill="#1B0707"/>
<path d="M144.813 42.3175V44.9233H146.894V45.8447H144.813V52.634C144.813 53.1991 144.914 53.6202 145.115 53.8962C145.316 54.1722 145.653 54.3107 146.123 54.3107C146.309 54.3107 146.61 54.2788 147.025 54.2161L147.072 55.1298C146.78 55.2354 146.384 55.2881 145.882 55.2881C145.121 55.2881 144.566 55.0638 144.219 54.6153C143.873 54.1667 143.699 53.507 143.699 52.6351V45.8436H141.849V44.9222H143.698V42.3164H144.813V42.3175Z" fill="#1B0707"/>
<path d="M4.83334 21.6333C18.8097 17.3541 33.0751 14.6461 47.5413 13.6038C51.9489 13.286 52.5712 0.22195 48.6535 0.504518C33.6529 1.58531 18.7967 4.41979 4.3033 8.85731C0.509428 10.0195 0.270478 23.0308 4.83334 21.6333Z" fill="#1B0707"/>
<path d="M3.80371 42.4862C12.4157 39.6396 21.2134 37.8134 30.2229 37.0008C34.8477 36.5841 35.0345 23.4958 30.8909 23.8697C21.3209 24.7328 11.9009 26.7096 2.7545 29.7321C-1.19904 31.0383 -0.93619 44.0529 3.80371 42.4862Z" fill="#1B0707"/>
<path d="M3.82096 63.3809C17.868 59.0049 32.3396 56.6949 47.0188 56.5839C51.548 56.5498 52.0291 43.4197 47.6868 43.4527C32.4374 43.5681 17.3597 46.0827 2.77067 50.6268C-1.1807 51.8583 -0.971072 64.874 3.82096 63.3809Z" fill="#1B0707"/>
<path d="M197.572 18.4197V32.2336H199.085V22.5746C199.379 21.6367 199.861 20.8836 200.528 20.3174C201.196 19.75 202.061 19.4664 203.12 19.4664C204.196 19.4664 205.026 19.7951 205.611 20.4515C206.195 21.1079 206.487 22.2305 206.487 23.8159V32.2336H208V23.8203C208 21.8797 207.613 20.4526 206.84 19.5367C206.066 18.622 204.939 18.1646 203.46 18.1646C202.442 18.1646 201.561 18.3966 200.817 18.8605C200.073 19.3245 199.481 19.982 199.045 20.833L198.906 18.4208H197.572V18.4197ZM183.862 25.1155C183.862 23.5433 184.26 22.2074 185.06 21.1112C185.858 20.0139 186.964 19.4653 188.377 19.4653C189.79 19.4653 190.9 20.0139 191.707 21.1112C192.514 22.2085 192.918 23.5433 192.918 25.1155V25.5366C192.918 27.1353 192.516 28.4788 191.713 29.5662C190.911 30.6547 189.806 31.199 188.403 31.199C186.973 31.199 185.859 30.6547 185.061 29.5662C184.261 28.4777 183.863 27.1353 183.863 25.5366V25.1155H183.862ZM182.349 25.5432C182.349 27.5861 182.899 29.2562 184.001 30.5547C185.102 31.8532 186.569 32.5019 188.403 32.5019C190.219 32.5019 191.675 31.8532 192.773 30.5547C193.87 29.2573 194.419 27.5861 194.419 25.5432V25.1221C194.419 23.0881 193.868 21.4201 192.767 20.1173C191.666 18.8155 190.203 18.1646 188.378 18.1646C186.562 18.1646 185.103 18.8155 184.002 20.1173C182.9 21.4201 182.35 23.0881 182.35 25.1221V25.5432H182.349ZM179.019 12.3164H177.518V14.4615H179.019V12.3164ZM179.019 18.4197H177.518V32.2336H179.019V18.4197ZM162.95 18.4197V32.2336H164.464V22.5746C164.759 21.6367 165.24 20.8836 165.908 20.3174C166.576 19.75 167.44 19.4664 168.499 19.4664C169.576 19.4664 170.406 19.7951 170.99 20.4515C171.574 21.1079 171.866 22.2305 171.866 23.8159V32.2336H173.379V23.8203C173.379 21.8797 172.993 20.4526 172.219 19.5367C171.446 18.622 170.319 18.1646 168.839 18.1646C167.822 18.1646 166.942 18.3966 166.197 18.8605C165.453 19.3245 164.862 19.982 164.424 20.833L164.285 18.4208H162.95V18.4197ZM157.376 13.6446V26.2359C157.376 27.8268 156.902 29.0517 155.951 29.9104C155.001 30.7691 153.769 31.199 152.256 31.199C150.768 31.199 149.562 30.7669 148.636 29.9038C147.711 29.0407 147.249 27.8181 147.249 26.2359V13.6446H145.735V26.2458C145.735 28.2633 146.336 29.8103 147.539 30.8867C148.741 31.9631 150.313 32.5019 152.256 32.5019C154.223 32.5019 155.819 31.9653 157.043 30.8933C158.266 29.8213 158.877 28.2721 158.877 26.2458V13.6446H157.376ZM134.573 29.3222C134.27 29.0418 134.119 28.6713 134.119 28.2117C134.119 27.6498 134.321 27.1705 134.724 26.7757C135.128 26.3799 135.721 26.182 136.503 26.182H138.559V28.1347C138.383 28.5602 138.042 28.9351 137.537 29.2584C137.033 29.5816 136.456 29.7433 135.809 29.7433C135.288 29.7444 134.876 29.6036 134.573 29.3222ZM142.86 32.2336C142.65 31.6718 142.496 31.1066 142.4 30.536C142.303 29.9654 142.254 29.3573 142.254 28.7097V23.0023C142.254 21.4531 141.746 20.2591 140.728 19.4213C139.71 18.5824 138.386 18.1635 136.755 18.1635C135.031 18.1635 133.64 18.5868 132.58 19.4334C131.521 20.28 131.02 21.2871 131.079 22.4526L131.092 22.5295L134.649 22.5427C134.649 22.0238 134.811 21.617 135.134 21.3234C135.458 21.0298 135.919 20.8836 136.516 20.8836C137.188 20.8836 137.697 21.0672 138.042 21.4322C138.386 21.7984 138.559 22.3129 138.559 22.977V24.0754H136.503C134.526 24.0754 133.024 24.4481 131.994 25.1925C130.964 25.9368 130.45 26.9868 130.45 28.3403C130.45 29.6256 130.837 30.6404 131.61 31.3848C132.383 32.1291 133.486 32.5019 134.915 32.5019C135.772 32.5019 136.511 32.2809 137.129 31.8378C137.747 31.3958 138.245 30.8383 138.623 30.1655C138.665 30.5316 138.735 30.8889 138.832 31.2375C138.928 31.586 139.044 31.918 139.178 32.2336H142.86ZM125.216 25.6905C125.216 26.9011 125.007 27.8598 124.591 28.5668C124.175 29.2749 123.521 29.6278 122.63 29.6278C122.058 29.6278 121.577 29.5256 121.186 29.3211C120.795 29.1165 120.486 28.8186 120.26 28.4261V22.3657C120.487 21.9391 120.795 21.6115 121.186 21.3817C121.577 21.1508 122.05 21.0364 122.605 21.0364C123.488 21.0364 124.144 21.441 124.573 22.2514C125.002 23.0617 125.216 24.1183 125.216 25.4223V25.6905ZM128.898 25.441C128.898 23.2629 128.432 21.5048 127.498 20.1678C126.565 18.832 125.253 18.1635 123.563 18.1635C122.807 18.1635 122.144 18.3273 121.576 18.6549C121.009 18.9826 120.524 19.4488 120.12 20.0535L119.905 18.4197H116.588V37.5452H120.258V30.9186C120.653 31.4376 121.128 31.8323 121.683 32.0995C122.238 32.3677 122.872 32.5019 123.588 32.5019C125.26 32.5019 126.564 31.8807 127.498 30.6382C128.431 29.3958 128.898 27.7532 128.898 25.7103V25.441ZM105.111 25.1925C105.111 23.9776 105.332 22.9803 105.773 22.203C106.215 21.4245 106.91 21.0364 107.86 21.0364C108.819 21.0364 109.521 21.4234 109.966 22.1964C110.412 22.9693 110.634 23.9688 110.634 25.1925V25.4597C110.634 26.7098 110.414 27.7169 109.973 28.481C109.531 29.2463 108.836 29.6278 107.885 29.6278C106.91 29.6278 106.204 29.2474 105.766 28.4876C105.329 27.7268 105.11 26.7175 105.11 25.4597V25.1925H105.111ZM101.441 25.4663C101.441 27.5432 102.01 29.2353 103.15 30.5415C104.289 31.8477 105.868 32.5008 107.885 32.5008C109.895 32.5008 111.469 31.8477 112.608 30.5415C113.747 29.2353 114.317 27.5432 114.317 25.4663V25.198C114.317 23.1298 113.745 21.441 112.602 20.1294C111.459 18.8188 109.878 18.1635 107.86 18.1635C105.851 18.1635 104.278 18.821 103.143 20.1359C102.008 21.4509 101.441 23.1386 101.441 25.198V25.4663ZM100.533 18.3174C100.374 18.2745 100.216 18.2382 100.061 18.2085C99.9055 18.1789 99.735 18.1635 99.5504 18.1635C98.8856 18.1635 98.2991 18.3658 97.7908 18.7704C97.2825 19.1739 96.8676 19.739 96.5483 20.4625L96.3843 18.4197H92.9662V32.2336H96.6363V22.9012C96.8209 22.4844 97.0903 22.1601 97.4433 21.9303C97.7962 21.7005 98.2459 21.5862 98.7922 21.5862L100.141 21.6247L100.533 18.3174ZM87.0511 32.2336H90.1911V18.4197H86.508V28.4909C86.2387 28.8659 85.8944 29.1495 85.474 29.3419C85.0537 29.5333 84.5497 29.63 83.9611 29.63C83.305 29.63 82.8087 29.4101 82.473 28.9714C82.1363 28.5327 81.968 27.8093 81.968 26.8021V18.4208H78.2979V26.7582C78.2979 28.724 78.7031 30.1732 79.5144 31.1055C80.3258 32.0379 81.4499 32.5041 82.8879 32.5041C83.7286 32.5041 84.4726 32.3084 85.12 31.9169C85.7673 31.5255 86.3017 30.9681 86.722 30.2446L87.0511 32.2336ZM75.3969 21.1893H67.7917V16.5164H76.6579V13.6435H64.1086V32.2325H76.6828V29.3595H67.7906V24.0611H75.3958V21.1893H75.3969Z" fill="#1B0707"/>
</svg>
