<svg width="430" height="423" viewBox="0 0 430 423" fill="none" xmlns="http://www.w3.org/2000/svg">
<path d="M421.958 142.477C422.306 141.732 422.007 140.78 421.29 140.35L409.619 133.341C408.903 132.911 408.04 133.165 407.693 133.91C407.346 134.654 407.645 135.606 408.361 136.036L418.736 142.267L413.705 153.048C413.358 153.792 413.657 154.744 414.373 155.174C415.089 155.604 415.951 155.35 416.299 154.605L421.958 142.477ZM259.769 34.0036C259.526 33.168 258.715 32.6543 257.957 32.8562C257.199 33.058 256.78 33.8991 257.023 34.7347L259.769 34.0036ZM258.396 34.3691C257.023 34.7347 257.023 34.7347 257.023 34.7348C257.023 34.7348 257.023 34.7349 257.023 34.735C257.023 34.7351 257.023 34.7352 257.023 34.7353C257.023 34.7356 257.023 34.736 257.023 34.7364C257.024 34.7372 257.024 34.7383 257.024 34.7396C257.025 34.7423 257.026 34.746 257.028 34.7507C257.03 34.7601 257.034 34.7736 257.04 34.7911C257.05 34.826 257.065 34.877 257.085 34.9436C257.125 35.0767 257.184 35.2723 257.264 35.5273C257.422 36.0371 257.66 36.7843 257.98 37.7435L260.684 36.8803C260.372 35.945 260.142 35.2208 259.99 34.7329C259.914 34.4889 259.858 34.3041 259.821 34.1815C259.803 34.1202 259.789 34.0745 259.781 34.0447C259.776 34.0298 259.773 34.0189 259.771 34.012C259.77 34.0086 259.769 34.0062 259.769 34.0048C259.769 34.0041 259.769 34.0036 259.768 34.0034C259.768 34.0033 259.768 34.0033 259.768 34.0033C259.768 34.0033 259.768 34.0034 259.768 34.0034C259.768 34.0034 259.768 34.0035 259.768 34.0035C259.769 34.0036 259.769 34.0036 258.396 34.3691ZM260.134 43.8019C260.794 45.5618 261.564 47.5387 262.448 49.6968L265.071 48.6141C264.201 46.4901 263.443 44.5457 262.795 42.8166L260.134 43.8019ZM264.955 55.5764C265.776 57.4316 266.666 59.3742 267.626 61.3884L270.17 60.1268C269.225 58.1431 268.348 56.2299 267.539 54.4029L264.955 55.5764ZM270.45 67.1089C271.388 68.9443 272.379 70.8221 273.424 72.7324L275.879 71.2964C274.85 69.4161 273.874 67.5674 272.95 65.7602L270.45 67.1089ZM276.554 78.2604C277.604 80.0524 278.7 81.8636 279.844 83.6863L282.193 82.0719C281.069 80.28 279.992 78.4988 278.959 76.736L276.554 78.2604ZM283.297 89.0043C284.461 90.736 285.668 92.4715 286.919 94.2043L289.144 92.4041C287.916 90.7033 286.731 88.9992 285.587 87.298L283.297 89.0043ZM290.713 99.2738C291.995 100.925 293.318 102.569 294.683 104.198L296.757 102.204C295.42 100.608 294.123 98.997 292.866 97.3776L290.713 99.2738ZM298.831 108.96C300.231 110.506 301.671 112.033 303.151 113.537L305.044 111.343C303.597 109.873 302.189 108.379 300.818 106.867L298.831 108.96ZM307.64 117.905C309.157 119.318 310.713 120.704 312.308 122.059L313.986 119.665C312.43 118.344 310.912 116.991 309.43 115.611L307.64 117.905ZM317.152 125.977C318.786 127.234 320.458 128.457 322.168 129.64L323.595 127.054C321.93 125.902 320.301 124.711 318.709 123.485L317.152 125.977ZM327.322 133.012C329.052 134.079 330.819 135.106 332.623 136.088L333.768 133.329C332.014 132.374 330.295 131.375 328.612 130.336L327.322 133.012ZM338.066 138.858C339.887 139.721 341.744 140.539 343.636 141.306L344.474 138.401C342.635 137.655 340.83 136.861 339.06 136.022L338.066 138.858ZM349.264 143.403C351.139 144.041 353.048 144.63 354.989 145.167L355.511 142.154C353.623 141.632 351.768 141.059 349.945 140.439L349.264 143.403ZM360.808 146.597C362.708 147.006 364.637 147.365 366.596 147.672L366.806 144.592C364.898 144.293 363.02 143.943 361.172 143.545L360.808 146.597ZM372.44 148.422C374.372 148.616 376.332 148.76 378.319 148.851L378.233 145.741C376.293 145.652 374.382 145.512 372.499 145.323L372.44 148.422ZM384.111 148.967C386.036 148.956 387.986 148.896 389.962 148.786L389.605 145.677C387.674 145.785 385.767 145.843 383.887 145.854L384.111 148.967ZM395.702 148.329C397.595 148.133 399.51 147.892 401.447 147.603L400.852 144.518C398.952 144.802 397.076 145.038 395.223 145.229L395.702 148.329ZM407.121 146.632C408.975 146.274 410.849 145.873 412.743 145.428L411.938 142.384C410.077 142.821 408.237 143.215 406.417 143.566L407.121 146.632ZM418.309 144.008C419.246 143.75 420.188 143.481 421.134 143.201L420.189 140.194C419.258 140.469 418.331 140.734 417.41 140.987L418.309 144.008Z" fill="url(#paint0_linear_1_16817)"/>
<path d="M107.942 416.815C107.226 416.498 106.926 415.593 107.273 414.794L112.928 401.777C113.275 400.978 114.137 400.588 114.853 400.906C115.569 401.224 115.869 402.129 115.522 402.927L110.496 414.498L120.873 419.1C121.59 419.417 121.889 420.322 121.542 421.121C121.195 421.92 120.333 422.31 119.617 421.992L107.942 416.815ZM240.802 3.01078C240.527 2.22759 240.91 1.30542 241.657 0.951049C242.404 0.59668 243.233 0.944308 243.507 1.7275L240.802 3.01078ZM108.098 413.94C204.934 370.127 250.916 304.292 266.365 231.129C281.844 157.822 266.724 76.9059 240.802 3.01078L243.507 1.7275C269.503 75.8324 284.84 157.417 269.173 231.609C253.476 305.946 206.707 372.611 109.044 416.799L108.098 413.94Z" fill="url(#paint1_linear_1_16817)"/>
<defs>
<linearGradient id="paint0_linear_1_16817" x1="398.88" y1="135.738" x2="242.332" y2="77.6956" gradientUnits="userSpaceOnUse">
<stop stop-color="#BFF0FF"/>
<stop offset="1" stop-color="#82B4FF"/>
</linearGradient>
<linearGradient id="paint1_linear_1_16817" x1="83.082" y1="254.808" x2="305.214" y2="172.449" gradientUnits="userSpaceOnUse">
<stop stop-color="#BFF0FF"/>
<stop offset="1" stop-color="#82B4FF"/>
</linearGradient>
</defs>
</svg>
