<svg width="140" height="398" viewBox="0 0 140 398" fill="none" xmlns="http://www.w3.org/2000/svg">
<path d="M69.9324 8.61126C69.1429 8.36018 68.2994 8.79663 68.0483 9.58609C67.7972 10.3756 68.2337 11.2191 69.0231 11.4702L69.9324 8.61126ZM89.4552 40.7798L90.9543 40.7264L89.4552 40.7798ZM81.6091 82.1639L83.0269 82.6535L81.6091 82.1639ZM59.7836 82.5011L59.908 81.0063L59.7836 82.5011ZM86.0798 96.279L87.0721 95.1542L86.0798 96.279ZM100.706 132.701L99.2095 132.809L100.706 132.701ZM68.2864 193.328L67.572 192.01L68.2864 193.328ZM60.9734 175.077L60.9523 176.577L60.9734 175.077ZM102.615 206.696L101.179 207.129L102.615 206.696ZM100.939 255.419L99.5834 254.778L100.939 255.419ZM69.7989 282.659L69.0485 281.36L69.7989 282.659ZM44.6876 283.363L43.8111 284.58L44.6876 283.363ZM51.6055 250.296L51.5302 251.794L51.6055 250.296ZM74.0868 261.642L75.0723 260.511L74.0868 261.642ZM91.2179 280.942L89.9495 281.743L91.2179 280.942ZM69.6688 387.389C69.5702 388.211 70.1571 388.958 70.9796 389.057L84.3836 390.664C85.2062 390.762 85.9529 390.175 86.0515 389.353C86.1501 388.53 85.5633 387.783 84.7407 387.685L72.826 386.257L74.2544 374.342C74.353 373.519 73.7662 372.773 72.9436 372.674C72.1211 372.575 71.3744 373.162 71.2757 373.985L69.6688 387.389ZM69.0231 11.4702C81.8975 15.5647 87.4605 26.915 87.9562 40.8331L90.9543 40.7264C90.4337 26.1114 84.4799 13.238 69.9324 8.61126L69.0231 11.4702ZM87.9562 40.8331C88.4207 53.877 84.4793 69.256 80.1912 81.6743L83.0269 82.6535C87.3486 70.1381 91.4389 54.3348 90.9543 40.7264L87.9562 40.8331ZM59.6592 83.996C69.8455 84.8439 77.3085 90.5414 85.0875 97.4039L87.0721 95.1542C79.2694 88.2708 71.1572 81.9428 59.908 81.0063L59.6592 83.996ZM99.5834 254.778C96.8694 260.516 92.0881 265.535 86.5052 269.957C80.9297 274.375 74.6553 278.121 69.0485 281.36L70.5492 283.958C76.1631 280.714 82.6054 276.874 88.3681 272.309C94.1236 267.749 99.3021 262.389 102.295 256.061L99.5834 254.778ZM69.0485 281.36C65.7666 283.256 61.4655 284.628 57.1639 284.917C52.8551 285.207 48.7015 284.405 45.5641 282.146L43.8111 284.58C47.6917 287.375 52.6133 288.23 57.3655 287.91C62.1248 287.59 66.8703 286.083 70.5492 283.958L69.0485 281.36ZM51.5302 251.794C55.1837 251.978 59.1137 253.429 62.9088 255.523C66.6887 257.608 70.2364 260.276 73.1014 262.773L75.0723 260.511C72.0946 257.916 68.3727 255.111 64.358 252.896C60.3587 250.689 55.9693 249.013 51.6808 248.798L51.5302 251.794ZM73.1014 262.773C79.4407 268.297 84.6789 273.396 89.9495 281.743L92.4862 280.142C86.9954 271.446 81.5162 266.127 75.0723 260.511L73.1014 262.773ZM80.1912 81.6743C74.8963 97.0084 68.2304 104.056 62.227 106.464C56.2986 108.842 50.5968 106.855 46.7005 103.1C42.73 99.2727 40.99 93.9863 42.4551 90.1098C43.8467 86.428 48.5573 83.0718 59.6592 83.996L59.908 81.0063C48.3378 80.0431 41.763 83.4554 39.6488 89.0492C37.6082 94.4485 40.1422 100.945 44.6185 105.26C49.1689 109.646 56.0868 112.16 63.3439 109.249C70.526 106.368 77.6115 98.3364 83.0269 82.6535L80.1912 81.6743ZM85.0875 97.4039C90.7763 102.422 94.0059 107.491 95.9675 113.136C97.9463 118.831 98.6574 125.17 99.2095 132.809L102.202 132.593C101.649 124.944 100.922 118.254 98.8014 112.152C96.6637 105.999 93.1329 100.501 87.0721 95.1542L85.0875 97.4039ZM99.2095 132.809C100.165 146.026 98.6093 157.346 93.6933 167.067C88.7838 176.775 80.4469 185.037 67.572 192.01L69.0007 194.647C82.2863 187.452 91.1267 178.79 96.3705 168.421C101.608 158.064 103.182 146.155 102.202 132.593L99.2095 132.809ZM67.572 192.01C61.1605 195.482 56.76 195.897 54.0195 195.015C51.3852 194.168 49.928 191.999 49.5986 189.264C48.9141 183.581 53.1691 176.467 60.9523 176.577L60.9946 173.577C50.993 173.436 45.7695 182.561 46.6201 189.623C47.0584 193.261 49.1221 196.591 53.1007 197.871C56.9731 199.117 62.2773 198.289 69.0007 194.647L67.572 192.01ZM60.9523 176.577C67.5003 176.669 76.507 180.734 84.5219 186.732C92.5321 192.727 99.1331 200.342 101.179 207.129L104.051 206.263C101.733 198.572 94.5304 190.476 86.3195 184.331C78.1133 178.189 68.4811 173.683 60.9946 173.577L60.9523 176.577ZM101.179 207.129C103.076 213.423 104.168 222.227 104.023 231.066C103.879 239.923 102.495 248.621 99.5834 254.778L102.295 256.061C105.469 249.351 106.875 240.164 107.023 231.115C107.171 222.046 106.058 212.922 104.051 206.263L101.179 207.129ZM45.5641 282.146C38.0627 276.744 34.8292 268.735 35.7857 262.4C36.2606 259.255 37.7592 256.519 40.2845 254.616C42.8157 252.709 46.5089 251.542 51.5302 251.794L51.6808 248.798C46.1221 248.518 41.6909 249.8 38.4791 252.22C35.2615 254.645 33.3986 258.116 32.8193 261.952C31.6676 269.58 35.5551 278.636 43.8111 284.58L45.5641 282.146ZM89.9495 281.743C100.932 299.135 100.231 321.975 94.5439 342.321C91.7087 352.464 87.6543 361.906 83.2763 369.619C78.8817 377.361 74.2232 383.251 70.2313 386.388L72.085 388.747C76.5164 385.264 81.4047 378.994 85.8853 371.1C90.3824 363.177 94.5316 353.509 97.4332 343.128C103.22 322.428 104.126 298.575 92.4862 280.142L89.9495 281.743Z" fill="url(#paint0_linear_103_126)"/>
<defs>
<linearGradient id="paint0_linear_103_126" x1="69.8846" y1="342.743" x2="69.6907" y2="10.0406" gradientUnits="userSpaceOnUse">
<stop stop-color="#BFF0FF"/>
<stop offset="1" stop-color="#82B4FF"/>
</linearGradient>
</defs>
</svg>
