<svg width="218" height="40" viewBox="0 0 218 40" fill="none" xmlns="http://www.w3.org/2000/svg">
<path d="M138.066 26.415V29.3415C137.936 28.3703 137.936 27.3862 138.066 26.415Z" fill="#1B0707"/>
<path d="M85.2897 11.0178V17.2073C83.4258 19.0229 82.0773 21.3008 81.3821 23.8083C81.2958 24.1191 81.221 24.4327 81.1548 24.7493C80.6971 26.9818 80.7601 29.2899 81.3389 31.4941C80.726 31.4518 80.1224 31.3219 79.5462 31.1085C78.8192 30.8381 78.2216 30.2347 77.7536 29.2986L73.2848 20.8042C73.0143 20.2632 72.7515 19.7251 72.4964 19.1899C72.2412 18.6547 71.9889 18.107 71.7396 17.5469C71.4921 16.9944 71.2475 16.4333 71 15.8664L70.7698 15.9182C70.8389 16.721 70.8878 17.5152 70.9281 18.3036C70.977 19.3395 71.0058 20.3352 71.0202 21.2962C71.0346 22.2573 71.0375 23.1925 71.0375 24.1018V31.2323C70.8149 31.2802 70.4639 31.3349 69.9843 31.3963C69.5005 31.4588 69.0132 31.4896 68.5254 31.4884C67.4434 31.4884 66.6867 31.3071 66.255 30.9359C65.8234 30.5647 65.5903 29.8914 65.5903 28.9303V9.79773C65.6191 9.76032 65.6479 9.72003 65.6795 9.68263C65.7273 9.62423 65.7782 9.56852 65.832 9.51573C65.8821 9.46487 65.9349 9.41684 65.9903 9.37186C66.2887 9.13415 66.6267 8.95102 66.9888 8.83088L67.1931 8.7647C67.791 8.58345 68.4129 8.49419 69.0376 8.49997C69.823 8.49626 70.6027 8.63369 71.3396 8.9057C71.4087 8.9316 71.4777 8.96037 71.5439 8.99202C72.2455 9.36268 72.8042 9.95578 73.1323 10.6782L77.6385 19.2101C77.9089 19.728 78.1794 20.2642 78.4499 20.8186C78.7204 21.373 78.9784 21.9207 79.224 22.4616C79.4714 23.0026 79.7045 23.558 79.9261 24.122L80.0872 24.0874C79.9529 22.5297 79.8752 21.0392 79.8541 19.6158C79.8282 17.9929 79.8167 16.4505 79.8167 14.9629V8.7647C80.0613 8.71578 80.4181 8.65248 80.8872 8.58054C81.3764 8.50413 81.871 8.4666 82.3662 8.46832C83.4222 8.46832 84.1762 8.65823 84.6193 9.04382C85.0624 9.42941 85.2897 10.0826 85.2897 11.0178Z" fill="#1B0707"/>
<path d="M102.204 8.54314C101.595 8.44262 100.979 8.39162 100.362 8.39063C98.7017 8.3885 97.0622 8.76026 95.5652 9.47833C95.5652 9.54739 95.5652 9.61645 95.5652 9.68839C95.5778 9.97014 95.6502 10.246 95.7778 10.4975C95.9053 10.7491 96.0849 10.9706 96.3047 11.1473C96.7977 11.6019 97.5114 11.8293 98.4456 11.8293L101.945 8.83089C102.057 8.73594 102.163 8.64098 102.264 8.54314H102.204ZM101.878 19.6446C102.189 20.5136 102.338 21.4325 102.316 22.3552C102.316 23.9819 101.983 25.2375 101.317 26.1218C100.985 26.5359 100.564 26.8704 100.086 27.1008C99.6074 27.3313 99.0835 27.4519 98.5525 27.4538C98.0216 27.4557 97.4969 27.3389 97.0168 27.112C96.5368 26.885 96.1136 26.5536 95.7781 26.142C95.1144 25.2672 94.7816 24.0049 94.7796 22.3552C94.7777 20.7054 95.1192 19.4499 95.804 18.5885C96.1262 18.1529 96.5513 17.8039 97.0414 17.5728C96.5526 17.5008 96.0592 17.4652 95.5652 17.4663C93.3943 17.4604 91.2779 18.1457 89.5224 19.423C89.2783 20.3811 89.1584 21.3665 89.1656 22.3552C89.1169 24.1059 89.5129 25.8404 90.3166 27.3966C91.0609 28.7797 92.1984 29.9112 93.5855 30.6482C95.1162 31.4285 96.8172 31.8152 98.5348 31.7733C100.255 31.813 101.958 31.417 103.484 30.6223C104.348 30.1602 105.118 29.5427 105.757 28.8008C105.937 27.0693 105.674 25.3206 104.993 23.7183C104.313 22.116 103.237 20.7124 101.867 19.6388L101.878 19.6446Z" fill="#1B0707"/>
<path d="M107.93 22.3555C107.973 24.0955 107.572 25.8177 106.765 27.3595C106.485 27.8732 106.151 28.3555 105.769 28.7983C105.948 27.0667 105.685 25.318 105.005 23.7157C104.325 22.1134 103.249 20.7098 101.879 19.6363C101.739 19.272 101.55 18.9283 101.317 18.6148C101.003 18.1789 100.585 17.8277 100.101 17.5928C99.6178 17.3578 99.0836 17.2462 98.5464 17.2681C98.0249 17.2594 97.5079 17.3665 97.0328 17.5817C96.5441 17.5098 96.0507 17.4742 95.5567 17.4753C93.3858 17.4694 91.2693 18.1547 89.5139 19.432C89.7005 18.7124 89.977 18.0192 90.3369 17.3688C91.1039 15.9863 92.2513 14.8528 93.6431 14.1028C94.5996 13.5834 95.6398 13.2357 96.7163 13.0756C97.3305 12.9818 97.951 12.9356 98.5723 12.9374C100.275 12.893 101.96 13.2895 103.464 14.0884C104.847 14.8548 105.983 15.9997 106.739 17.3889C107.044 17.9416 107.29 18.5252 107.472 19.1298C107.783 20.1766 107.938 21.2636 107.93 22.3555Z" fill="#1B0707"/>
<path d="M133.724 27.8803C133.724 29.0331 133.856 30.182 134.118 31.3046C133.831 31.2286 133.561 31.0998 133.321 30.9247C132.841 30.5564 132.602 29.8917 132.602 28.9306V19.6967C132.602 18.8593 132.366 18.2436 131.9 17.8493C131.373 17.4355 130.715 17.226 130.046 17.2594C129.492 17.2572 128.944 17.3771 128.441 17.6105C128.071 17.7786 127.719 17.986 127.393 18.2292C127.437 18.482 127.46 18.738 127.462 18.9946V31.1837C127.123 31.2765 126.776 31.3438 126.427 31.3851C125.95 31.4496 125.469 31.4804 124.988 31.4772C123.932 31.4772 123.161 31.2959 122.686 30.9247C122.211 30.5535 121.966 29.8917 121.966 28.9306V19.6967C121.966 18.8584 121.72 18.2426 121.227 17.8493C120.699 17.444 120.047 17.2354 119.382 17.2594C118.886 17.252 118.392 17.3329 117.924 17.4983C117.547 17.6343 117.182 17.8018 116.833 17.999V31.1837C116.493 31.2768 116.147 31.3441 115.797 31.3851C115.32 31.4498 114.839 31.4806 114.358 31.4772C113.325 31.4772 112.566 31.2959 112.088 30.9247C111.783 30.6768 111.57 30.3331 111.484 29.9493C113.278 28.0522 114.573 25.7396 115.253 23.2188C115.397 22.6595 115.509 22.0927 115.59 21.521C115.689 20.8108 115.739 20.0945 115.739 19.3773C115.741 17.5013 115.397 15.641 114.724 13.8899V13.8669C115.1 13.7152 115.485 13.5826 115.875 13.4698C117.075 13.1219 118.319 12.9475 119.569 12.9518C120.701 12.9427 121.826 13.1307 122.893 13.5072C123.674 13.7942 124.409 14.1936 125.074 14.6927C125.696 14.2873 126.351 13.9341 127.031 13.6367C128.238 13.1467 129.533 12.9135 130.835 12.9518C132.061 12.9419 133.277 13.1675 134.417 13.6165C135.495 14.0356 136.422 14.7696 137.076 15.7229C137.449 16.2788 137.716 16.8994 137.862 17.553C135.206 20.3356 133.725 24.034 133.724 27.8803Z" fill="#1B0707"/>
<path d="M149.901 17.1758C150.475 17.2313 151.033 17.3974 151.544 17.665C151.862 17.8429 152.123 18.1076 152.296 18.428C152.469 18.7485 152.548 19.1115 152.523 19.4749V19.918L147.599 20.436C145.556 20.6278 144.017 21.1755 142.981 22.0791C142.674 22.3442 142.408 22.6524 142.189 22.9941C143.405 24.6453 145.057 25.9241 146.96 26.6859C146.793 26.4042 146.707 26.0814 146.713 25.7536C146.7 25.4851 146.762 25.2182 146.893 24.9832C147.023 24.7482 147.217 24.5546 147.452 24.4242C148.067 24.0959 148.75 23.9183 149.447 23.9063L152.548 23.6185V27.1579C152.333 27.2748 152.104 27.3637 151.867 27.4226C154.061 27.2535 156.153 26.4227 157.866 25.04V22.1625C157.002 20.7835 155.836 19.6184 154.456 18.7547C153.077 17.891 151.519 17.3511 149.901 17.1758Z" fill="#1B0707"/>
<path d="M157.864 19.5122V22.1768C157.001 20.7955 155.836 19.6278 154.457 18.7615C153.078 17.8953 151.52 17.3531 149.902 17.1757C149.52 17.1298 149.135 17.1077 148.751 17.1095C147.822 17.1089 146.898 17.221 145.997 17.4433C145.173 17.641 144.365 17.9008 143.58 18.2202C143.254 17.9879 142.993 17.6758 142.823 17.3138C142.616 16.9208 142.507 16.4833 142.506 16.0391C142.506 15.007 143.073 14.256 144.207 13.786C145.005 13.4719 145.839 13.2573 146.69 13.1472C147.602 13.0141 148.522 12.9458 149.444 12.9429C149.772 12.9429 150.091 12.9515 150.402 12.9688C152.441 13.0839 154.117 13.5778 155.429 14.4507L155.573 14.5485C157.1 15.617 157.864 17.2716 157.864 19.5122Z" fill="#1B0707"/>
<path d="M161.515 19.5583C161.575 19.3512 161.63 19.1382 161.676 18.9253C161.616 19.1325 161.561 19.3425 161.515 19.5583Z" fill="#1B0707"/>
<path d="M178.325 7.39241C177.856 7.02409 177.082 6.83705 175.998 6.83705C175.516 6.83437 175.034 6.87191 174.559 6.94927C174.221 6.99899 173.887 7.07304 173.56 7.17084V13.4755C173.333 13.3891 173.086 13.3086 172.824 13.2337C172.052 13.0282 171.256 12.9314 170.458 12.946C168.928 12.9251 167.411 13.2404 166.016 13.8697C166.168 14.7439 166.245 15.6296 166.246 16.517C166.251 20.4078 164.764 24.1525 162.091 26.9796C162.191 27.1983 162.301 27.4141 162.419 27.6184C162.76 28.2173 163.182 28.7663 163.673 29.25C164.309 29.8689 165.047 30.3732 165.854 30.7405C168.72 31.9032 171.889 32.0912 174.872 31.2757L175.313 31.1318C174.734 28.7218 174.77 26.2047 175.42 23.8126C176.069 21.4205 177.31 19.2302 179.028 17.4435V9.42968C179.028 8.44557 178.792 7.76648 178.325 7.39241ZM173.56 26.8242C173.246 27.0024 172.912 27.1443 172.565 27.2472C172.099 27.3895 171.613 27.4584 171.126 27.4515C169.797 27.4515 168.741 27.0448 167.961 26.2314C167.18 25.4181 166.796 24.1501 166.81 22.4274C166.773 21.4254 166.963 20.4281 167.365 19.5096C167.69 18.7938 168.233 18.1988 168.916 17.809C169.623 17.4291 170.416 17.2387 171.218 17.2565C171.889 17.2438 172.555 17.3692 173.175 17.6248C173.319 17.6881 173.462 17.7514 173.58 17.8176L173.56 26.8242Z" fill="#1B0707"/>
<path d="M179.027 17.4434V27.5348C179.045 28.0583 178.916 28.5764 178.656 29.0311C178.359 29.4867 177.954 29.8614 177.476 30.1217C176.801 30.551 176.074 30.8933 175.313 31.1403C174.733 28.7302 174.77 26.2132 175.419 23.8211C176.069 21.4289 177.309 19.2386 179.027 17.452V17.4434Z" fill="#1B0707"/>
<path d="M193.504 19.688V19.9182L188.592 20.4361C186.549 20.628 185.015 21.1757 183.988 22.0792C182.962 22.9827 182.438 24.269 182.417 25.9379C182.417 27.8831 183.162 29.3487 184.65 30.3348C186.139 31.3208 188.14 31.8128 190.653 31.8109C191.91 31.8256 193.166 31.6952 194.393 31.4225C195.358 31.2136 196.286 30.8594 197.144 30.3722C197.608 30.1226 198.021 29.79 198.364 29.3909C198.699 28.966 198.868 28.4347 198.842 27.8946C196.209 25.82 194.333 22.9358 193.504 19.688ZM193.542 27.1695C193.163 27.3527 192.758 27.476 192.342 27.535C191.788 27.6442 191.225 27.6991 190.661 27.699C189.628 27.699 188.874 27.5206 188.408 27.1638C188.184 27.0018 188.003 26.7877 187.881 26.54C187.759 26.2923 187.699 26.0184 187.706 25.7423C187.696 25.4741 187.762 25.2087 187.895 24.9758C188.028 24.7429 188.224 24.5519 188.46 24.4244C189.074 24.096 189.758 23.9185 190.454 23.9064L193.556 23.6187L193.542 27.1695Z" fill="#1B0707"/>
<path d="M211.27 20.324L209.794 19.9557C209.258 19.88 208.746 19.6832 208.297 19.3802C208.167 19.284 208.06 19.1588 207.986 19.0145C207.913 18.8702 207.873 18.7107 207.871 18.5486C207.869 18.315 207.937 18.086 208.068 17.8923C208.198 17.6985 208.385 17.549 208.602 17.4638C209.259 17.2 209.964 17.0803 210.671 17.1127C211.285 17.1181 211.897 17.1807 212.498 17.2998C213.113 17.413 213.718 17.5727 214.308 17.7774C214.739 17.9192 215.154 18.1053 215.546 18.3328C215.868 18.0845 216.132 17.7694 216.32 17.4091C216.522 17.0092 216.621 16.565 216.608 16.1171C216.61 15.7722 216.534 15.4312 216.384 15.1204C216.235 14.8097 216.016 14.5373 215.744 14.3244C215.07 13.7952 214.282 13.4289 213.442 13.254C212.383 13.0108 211.298 12.893 210.211 12.9029C207.846 12.9029 205.967 13.4142 204.577 14.4366C203.914 14.8959 203.377 15.5128 203.013 16.2317C202.649 16.9505 202.469 17.7488 202.49 18.5543C202.49 20.089 202.977 21.2899 203.949 22.157C204.922 23.0241 206.402 23.6658 208.389 24.082L209.94 24.4532C210.509 24.5121 211.054 24.7097 211.529 25.0287C211.688 25.156 211.814 25.3191 211.897 25.5047C211.981 25.6903 212.019 25.893 212.009 26.0963C212.009 26.1308 212.009 26.1625 212.009 26.197C213.762 25.5595 215.324 24.486 216.547 23.0778C216.383 22.856 216.201 22.6481 216.003 22.4562C215.038 21.5278 213.46 20.817 211.27 20.324Z" fill="#1B0707"/>
<path d="M71.0284 12.0626L67.8919 15.1934L66.1309 16.9544L65.5899 17.4896L62.2088 20.8822C61.9597 21.1321 61.6637 21.3303 61.3378 21.4656C61.0119 21.6009 60.6625 21.6705 60.3097 21.6705C59.9568 21.6705 59.6074 21.6009 59.2816 21.4656C58.9557 21.3303 58.6597 21.1321 58.4105 20.8822L58.3501 20.8246C58.1005 20.5751 57.9025 20.2788 57.7674 19.9527C57.6323 19.6266 57.5627 19.277 57.5627 18.9241C57.5627 18.5711 57.6323 18.2215 57.7674 17.8954C57.9025 17.5693 58.1005 17.273 58.3501 17.0235L65.6906 9.69445L65.9985 9.38368C66.2934 9.14429 66.6273 8.9574 66.9855 8.8312L67.1927 8.76502C67.7905 8.58354 68.4125 8.49428 69.0372 8.50028C69.8226 8.49658 70.6023 8.634 71.3392 8.90601C71.4082 8.93191 71.4744 8.96069 71.5435 8.99234C71.7869 9.49427 71.8681 10.0595 71.7758 10.6097C71.6835 11.1598 71.4223 11.6676 71.0284 12.0626Z" fill="#1B0707"/>
<path d="M85.2868 17.2075V30.5189C84.895 30.8529 84.4356 31.0983 83.9401 31.2382C83.2759 31.4383 82.5849 31.5353 81.8913 31.526C81.7043 31.526 81.5201 31.526 81.3388 31.5059C80.76 29.3016 80.697 26.9936 81.1547 24.761C81.2208 24.4445 81.2957 24.1308 81.382 23.82C82.0754 21.3091 83.4229 19.0272 85.2868 17.2075Z" fill="#1B0707"/>
<path d="M115.737 19.3625C115.737 20.0796 115.688 20.7959 115.59 21.5062C115.14 24.6819 113.702 27.6355 111.481 29.9488C111.398 29.6158 111.358 29.2734 111.363 28.9302V17.4432C111.343 16.9053 111.477 16.3729 111.751 15.9095C112.044 15.4703 112.428 15.0993 112.876 14.8218C113.45 14.4286 114.067 14.1032 114.715 13.8521V13.8751C115.391 15.6257 115.737 17.486 115.737 19.3625Z" fill="#1B0707"/>
<path d="M111.48 29.9492L111.449 29.9833L111.48 29.9492Z" fill="#1B0707"/>
<path d="M95.5654 9.47852L95.5278 9.49875L95.5654 9.47852Z" fill="#1B0707"/>
<path d="M138.066 26.4152C137.936 27.3863 137.936 28.3705 138.066 29.3416V31.1832C137.741 31.2794 137.408 31.3468 137.07 31.3847C136.594 31.4501 136.113 31.4819 135.632 31.4796C135.123 31.4892 134.614 31.4301 134.121 31.3041C133.555 28.8792 133.6 26.3516 134.253 23.9487C134.906 21.5457 136.146 19.3428 137.862 17.5381C138.007 18.1995 138.078 18.8752 138.072 19.5523L138.066 26.4152Z" fill="#1B0707"/>
<path d="M157.863 25.0405V27.895C157.889 28.4354 157.718 28.9668 157.383 29.3913C157.041 29.791 156.629 30.1237 156.166 30.3726C155.306 30.8597 154.377 31.2138 153.412 31.4228C152.645 31.5999 151.866 31.7144 151.081 31.7653C150.626 31.7969 150.154 31.8113 149.665 31.8113C147.154 31.8113 145.153 31.3193 143.663 30.3352C143.138 29.9953 142.683 29.56 142.319 29.0518C141.704 28.1326 141.392 27.0438 141.427 25.9383C141.39 24.9043 141.654 23.8819 142.187 22.9946C143.402 24.6459 145.054 25.9246 146.957 26.6865C147.078 26.8762 147.232 27.0421 147.412 27.1756C147.878 27.5325 148.629 27.7109 149.665 27.7109C150.228 27.7067 150.789 27.6479 151.34 27.5353C151.53 27.4951 151.702 27.4548 151.858 27.4116C154.053 27.2469 156.147 26.4202 157.863 25.0405Z" fill="#1B0707"/>
<path d="M166.249 16.5169C166.255 20.4066 164.769 24.1506 162.096 26.9767C161.485 25.5409 161.191 23.9901 161.233 22.4302C161.227 21.5812 161.3 20.7334 161.452 19.898C161.475 19.7829 161.498 19.6707 161.524 19.5585C161.584 19.3513 161.639 19.1383 161.685 18.9254C161.87 18.2844 162.134 17.6688 162.47 17.0924C163.251 15.7436 164.415 14.657 165.814 13.9703L166.03 13.8696C166.179 14.7441 166.252 15.6299 166.249 16.5169Z" fill="#1B0707"/>
<path d="M198.859 19.5122V27.8915C196.221 25.8203 194.338 22.9368 193.504 19.6877V19.4777C193.515 19.0749 193.416 18.6768 193.216 18.3267C193.044 18.0486 192.804 17.8196 192.517 17.662C191.864 17.2936 190.935 17.1066 189.729 17.1066C188.802 17.1061 187.878 17.2181 186.978 17.4404C186.791 17.4864 186.61 17.5325 186.434 17.5814C185.796 17.7545 185.17 17.9669 184.558 18.2173C184.233 17.9841 183.973 17.6722 183.801 17.3109C183.595 16.9177 183.487 16.4802 183.488 16.0362C183.488 15.0041 184.053 14.2531 185.185 13.7831C185.99 13.4683 186.831 13.2547 187.689 13.1472C188.501 13.0291 189.32 12.9618 190.14 12.9457H190.428C191.378 12.9385 192.327 13.0253 193.26 13.2047C194.442 13.4186 195.566 13.8773 196.56 14.5514C196.735 14.6753 196.903 14.8088 197.064 14.9514C197.161 15.0406 197.256 15.1326 197.351 15.2391C198.357 16.2731 198.859 17.6975 198.859 19.5122Z" fill="#1B0707"/>
<path d="M217.439 26.0502C217.454 26.8793 217.28 27.701 216.93 28.4529C216.577 29.175 216.054 29.8002 215.405 30.2743C214.062 31.2949 212.093 31.8061 209.497 31.808C207.477 31.808 205.815 31.5126 204.51 30.9218C204.211 30.7907 203.927 30.6267 203.665 30.4326C203.319 30.1963 203.037 29.8782 202.845 29.5067C202.652 29.1352 202.554 28.7218 202.56 28.3032C202.546 27.8577 202.648 27.4161 202.855 27.0214C203.062 26.6267 203.368 26.2922 203.742 26.0502C204.515 26.4825 205.324 26.8474 206.159 27.1407C207.178 27.4879 208.249 27.6563 209.325 27.6385C211.051 27.6385 211.96 27.1551 212.015 26.1998C213.768 25.5622 215.33 24.4888 216.553 23.0806C217.16 23.9492 217.471 24.9907 217.439 26.0502Z" fill="#1B0707"/>
<path d="M179.027 17.4434V27.5348C179.045 28.0583 178.916 28.5764 178.656 29.0311C178.359 29.4867 177.954 29.8614 177.476 30.1217C176.801 30.551 176.074 30.8933 175.313 31.1403C174.733 28.7302 174.77 26.2132 175.419 23.8211C176.069 21.4289 177.309 19.2386 179.027 17.452V17.4434Z" fill="#1B0707"/>
<path d="M103.386 6.36208C103.403 6.8169 103.287 7.26668 103.053 7.65696C102.826 7.98262 102.561 8.28013 102.264 8.54323H102.204C101.595 8.44271 100.979 8.39171 100.362 8.39073C98.7019 8.38859 97.0624 8.76035 95.5654 9.47842C95.5864 9.26795 95.6459 9.06312 95.741 8.87415C95.9007 8.57868 96.0991 8.3058 96.3308 8.06269L100.026 4.03418C100.264 4.03418 100.492 4.03418 100.705 4.06583C101.367 4.10516 102.002 4.3439 102.526 4.75068C102.782 4.93687 102.992 5.17858 103.141 5.45766C103.29 5.73674 103.374 6.04595 103.386 6.36208Z" fill="#1B0707"/>
<path d="M35.5173 26.9792C34.0396 28.8298 32.143 30.3024 29.9838 31.2753L14.9834 9.94144L6.8688 20.9824C6.32018 21.7252 5.49997 22.2208 4.58725 22.361C3.67452 22.5011 2.74341 22.2745 1.99718 21.7306C1.62613 21.459 1.31239 21.1169 1.07398 20.7237C0.835566 20.3305 0.677185 19.8941 0.607932 19.4396C0.53868 18.985 0.55992 18.5213 0.670433 18.075C0.780946 17.6286 0.978554 17.2086 1.25191 16.8388L4.12941 12.9225L12.1087 2.04844C12.2318 1.8829 12.3685 1.72794 12.5173 1.58516C12.6784 1.41287 12.8568 1.25763 13.0497 1.12188C13.4259 0.858474 13.8504 0.671841 14.2988 0.572661C14.7473 0.473481 15.2109 0.463702 15.6631 0.543882C16.1153 0.624063 16.5473 0.79263 16.9343 1.03994C17.3213 1.28724 17.6557 1.60844 17.9184 1.98513L35.5173 26.9792Z" fill="#1B0707"/>
<path d="M15.3863 15.9619H15.3834C13.4541 15.9619 11.8901 17.5259 11.8901 19.4552V19.4581C11.8901 21.3874 13.4541 22.9514 15.3834 22.9514H15.3863C17.3156 22.9514 18.8796 21.3874 18.8796 19.4581V19.4552C18.8796 17.5259 17.3156 15.9619 15.3863 15.9619Z" fill="#1B0707"/>
<path d="M18.7444 28.2141V33.923C18.7444 34.8541 18.3746 35.747 17.7162 36.4054C17.0579 37.0637 16.1649 37.4336 15.2339 37.4336C14.9489 37.4341 14.6648 37.4003 14.3879 37.3329C13.6271 37.1426 12.9516 36.7039 12.4684 36.0862C11.9852 35.4685 11.722 34.7073 11.7204 33.923V28.2141C11.707 27.7444 11.7879 27.2768 11.9583 26.839C12.1288 26.4011 12.3853 26.0019 12.7128 25.665C13.0402 25.328 13.4319 25.0602 13.8647 24.8772C14.2975 24.6943 14.7626 24.6001 15.2324 24.6001C15.7023 24.6001 16.1674 24.6943 16.6002 24.8772C17.0329 25.0602 17.4247 25.328 17.7521 25.665C18.0795 26.0019 18.3361 26.4011 18.5065 26.839C18.677 27.2768 18.7579 27.7444 18.7444 28.2141Z" fill="#1B0707"/>
<path opacity="0.13" d="M17.7173 25.7277C18.0436 26.0542 18.3023 26.4419 18.4785 26.8685C18.6548 27.2951 18.7452 27.7523 18.7446 28.2139V33.9228C18.7446 34.8539 18.3747 35.7468 17.7164 36.4052C17.058 37.0635 16.1651 37.4334 15.234 37.4334C14.949 37.4339 14.665 37.4001 14.388 37.3327C13.8672 37.0795 13.3608 36.809 12.8658 36.5155C12.5037 36.1882 12.2142 35.7886 12.0159 35.3425C11.8177 34.8965 11.7151 34.4138 11.7148 33.9257V28.2139C11.7147 27.519 11.9206 26.8398 12.3065 26.2619C12.6923 25.6841 13.2409 25.2337 13.8827 24.9676C14.5246 24.7015 15.2309 24.6317 15.9124 24.767C16.5939 24.9023 17.22 25.2366 17.7116 25.7277H17.7173Z" fill="#1B0707"/>
<path opacity="0.13" d="M39.6497 4.04564C39.6511 4.06384 39.6511 4.08212 39.6497 4.10032V4.17513C39.6162 5.07925 39.2335 5.93518 38.582 6.56301C37.9306 7.19084 37.0611 7.54169 36.1564 7.54182C36.0218 7.5414 35.8873 7.53371 35.7535 7.5188L35.5435 7.48714C35.4313 7.467 35.3219 7.4411 35.2154 7.41233C34.6344 7.24893 34.1055 6.93813 33.68 6.51009C33.2545 6.08205 32.9468 5.5513 32.7868 4.96932C32.7696 4.9089 32.7552 4.84559 32.7408 4.78229C32.6886 4.54024 32.6625 4.29327 32.6631 4.04564C32.6617 3.23352 32.9447 2.44656 33.463 1.82133C33.8364 1.37048 34.316 1.01946 34.8586 0.799816C35.2167 0.657606 35.596 0.575922 35.9809 0.558105H36.1564C36.2456 0.558105 36.3319 0.558105 36.4182 0.558105C37.1355 0.614208 37.8179 0.890588 38.3721 1.34942C38.444 1.40985 38.5131 1.47315 38.5821 1.53934C38.9166 1.86498 39.1825 2.2542 39.3644 2.68412C39.5462 3.11404 39.6403 3.57597 39.6411 4.04277L39.6497 4.04564Z" fill="#1B0707"/>
<path opacity="0.13" d="M34.1307 6.89421C33.9193 6.7402 33.7262 6.56256 33.5552 6.36475C33.7422 6.52876 33.9379 6.71292 34.1307 6.89421Z" fill="#1B0707"/>
<path d="M39.6497 4.04564C39.6511 4.06384 39.6511 4.08212 39.6497 4.10032V4.17513C39.6162 5.07925 39.2335 5.93518 38.582 6.56301C37.9306 7.19084 37.0611 7.54169 36.1564 7.54182C36.0218 7.5414 35.8873 7.53371 35.7535 7.5188L35.5435 7.48714C35.4313 7.467 35.3219 7.4411 35.2154 7.41233C34.6344 7.24893 34.1055 6.93813 33.68 6.51009C33.2545 6.08205 32.9468 5.5513 32.7868 4.96932C32.7696 4.9089 32.7552 4.84559 32.7408 4.78229C32.6886 4.54024 32.6625 4.29327 32.6631 4.04564C32.6617 3.23352 32.9447 2.44656 33.463 1.82133C33.8364 1.37048 34.316 1.01946 34.8586 0.799816C35.2167 0.657606 35.596 0.575922 35.9809 0.558105H36.1564C36.2456 0.558105 36.3319 0.558105 36.4182 0.558105C37.1355 0.614208 37.8179 0.890588 38.3721 1.34942C38.4462 1.40806 38.5163 1.4715 38.5821 1.53934C38.9166 1.86498 39.1825 2.2542 39.3644 2.68412C39.5462 3.11404 39.6403 3.57597 39.6411 4.04277L39.6497 4.04564Z" fill="#1B0707"/>
<path opacity="0.7" d="M36.985 35.1663C33.7783 37.5627 29.9749 39.0321 25.9899 39.4142C22.005 39.7963 17.9916 39.0764 14.3879 37.333C14.6649 37.4005 14.9489 37.4343 15.2339 37.4337C15.6952 37.4337 16.1519 37.3428 16.578 37.1662C17.0041 36.9896 17.3913 36.7308 17.7173 36.4045C18.0433 36.0782 18.3018 35.6909 18.4781 35.2646C18.6543 34.8384 18.7449 34.3816 18.7445 33.9203V31.6183C22.3919 32.9765 26.426 32.8536 29.984 31.2759L32.1278 34.3232C32.6618 35.0768 33.4724 35.5886 34.3825 35.7465C35.2926 35.9045 36.2282 35.6959 36.985 35.1663Z" fill="#1B0707"/>
<path opacity="0.7" d="M45.7357 17.6911C45.7388 21.0331 44.9727 24.3309 43.4967 27.3294C42.0207 30.3278 39.8744 32.9462 37.224 34.982C37.8991 34.4209 38.3382 33.6261 38.4539 32.756C38.5696 31.8858 38.3534 31.0039 37.8484 30.2859L35.5205 26.9796C37.8496 24.0676 38.9996 20.3868 38.7428 16.6667C38.4859 12.9467 36.8408 9.45892 34.1335 6.89464C34.4612 7.12909 34.8274 7.30439 35.2155 7.4126C35.322 7.44137 35.4313 7.46727 35.5435 7.48741C35.6557 7.50755 35.6816 7.51043 35.7536 7.51619C35.8872 7.5335 36.0217 7.54215 36.1564 7.54208C37.0617 7.54193 37.9315 7.19068 38.583 6.56224C39.2346 5.9338 39.6169 5.07715 39.6497 4.17252V4.10058C39.6512 4.08239 39.6512 4.06411 39.6497 4.04591C39.649 3.57912 39.5549 3.11718 39.3731 2.68726C39.1912 2.25735 38.9252 1.86812 38.5908 1.54248C40.8438 3.58568 42.6436 6.07834 43.8742 8.85974C45.1048 11.6411 45.739 14.6496 45.7357 17.6911Z" fill="#1B0707"/>
<path d="M37.2211 34.9821L36.9851 35.1663C36.2259 35.6939 35.2886 35.8992 34.3783 35.7374C33.468 35.5757 32.6588 35.0599 32.1279 34.303L29.9841 31.2759C32.1417 30.3071 34.0383 28.8396 35.5176 26.9941L37.8455 30.3004C38.3463 31.0173 38.56 31.8959 38.4444 32.7628C38.3288 33.6296 37.8923 34.4215 37.2211 34.9821Z" fill="#1B0707"/>
<path d="M37.2208 34.9814C37.1492 35.043 37.0742 35.1007 36.9963 35.1541L37.2208 34.9814Z" fill="#1B0707"/>
</svg>
