<svg width="236" height="38" viewBox="0 0 236 38" fill="none" xmlns="http://www.w3.org/2000/svg">
<g clip-path="url(#clip0_23_16788)">
<path d="M26.5961 32.3938H20.1006L12.4028 21.5673H5.50949V32.3938H0V1.32861H13.9683C17.5837 1.32861 20.4206 2.21154 22.4964 3.96881C24.5722 5.72609 25.6101 8.13484 25.6101 11.1779C25.6101 13.6638 24.9354 15.704 23.5948 17.2984C22.2542 18.8928 20.4292 20.0072 18.1286 20.6243L26.5961 32.3938ZM20.0141 11.4951C20.0141 9.80639 19.4432 8.52058 18.3102 7.63766C17.1772 6.74616 15.5771 6.30899 13.5186 6.30899H5.50949V16.7412H13.5705C15.5425 16.7412 17.108 16.2697 18.2756 15.3182C19.4346 14.3582 20.0141 13.0895 20.0141 11.4951Z" fill="#1B0707"/>
<path d="M33.6277 22.5874C33.9218 24.4476 34.6829 25.9048 35.9111 26.9592C37.1306 28.0136 38.6442 28.5365 40.4346 28.5365C42.7612 28.5365 44.8975 27.6021 46.8349 25.742L50.0178 28.5365C47.5701 31.4681 44.344 32.9254 40.3481 32.9254C36.8885 32.9254 33.9996 31.7853 31.6817 29.5051C29.3724 27.2249 28.2134 24.3019 28.2134 20.7187C28.2134 17.2899 29.3032 14.3925 31.4828 12.0181C33.6623 9.65218 36.4214 8.46924 39.7686 8.46924C43.3839 8.46924 46.169 9.6779 48.141 12.0867C50.113 14.4954 51.099 17.5042 51.099 21.113C51.099 21.3788 51.073 21.8674 51.0125 22.5789H33.6277V22.5874ZM33.5758 19.0386H45.7106C45.5289 17.2385 44.9235 15.7555 43.8769 14.5983C42.8304 13.441 41.4465 12.8667 39.7167 12.8667C38.0734 12.8667 36.6982 13.4325 35.5997 14.5726C34.4926 15.7126 33.818 17.2042 33.5758 19.0386Z" fill="#1B0707"/>
<path d="M74.9014 28.5362C73.6214 29.9592 72.2202 31.0392 70.7153 31.7936C69.2103 32.5479 67.3767 32.9251 65.2317 32.9251C61.7375 32.9251 58.8314 31.7421 56.5047 29.3763C54.1781 27.0104 53.0105 24.1387 53.0105 20.7699C53.0105 17.3668 54.1781 14.4694 56.522 12.0692C58.866 9.66906 61.7807 8.47754 65.275 8.47754C69.0979 8.47754 72.2462 9.82335 74.7198 12.515L71.3639 16.1067C69.4871 14.1523 67.4372 13.175 65.2317 13.175C63.2943 13.175 61.6683 13.9037 60.3709 15.3523C59.0735 16.801 58.4249 18.5754 58.4249 20.6756C58.4249 22.8015 59.0908 24.6016 60.4141 26.0674C61.7461 27.5333 63.4327 28.2619 65.4998 28.2619C67.6794 28.2619 69.7206 27.2847 71.6321 25.3302L74.9014 28.5362Z" fill="#1B0707"/>
<path d="M83.3689 32.3939H77.9546V0H83.3689V32.3939Z" fill="#1B0707"/>
<path d="M103.737 22.1844V8.96631H109.152V32.3938H103.737V28.7592C101.861 31.5109 99.3956 32.8824 96.3511 32.8824C93.7218 32.8824 91.6633 32.068 90.1757 30.4394C88.6794 28.8107 87.9355 26.6248 87.9355 23.8731V8.96631H93.3499V22.2787C93.3499 24.1132 93.791 25.5276 94.6732 26.5133C95.5554 27.5077 96.8009 27.9963 98.4096 27.9963C99.9924 27.9963 101.272 27.482 102.258 26.4448C103.244 25.4161 103.737 23.9932 103.737 22.1844Z" fill="#1B0707"/>
<path d="M120.257 13.5782V25.0734C120.257 27.0278 121.226 28.005 123.164 28.005C124.331 28.005 125.447 27.7393 126.519 27.2078V31.6053C125.084 32.4025 123.458 32.8054 121.641 32.8054C117.101 32.8054 114.834 30.5166 114.834 25.9306V13.5782H111.833V8.96643H114.834V2.52881H120.249V8.96643H126.606V13.5782H120.257Z" fill="#1B0707"/>
<path d="M149.673 32.3939H144.302V29.5052C142.391 31.751 139.839 32.874 136.648 32.874C134.286 32.874 132.297 32.2311 130.671 30.9453C129.045 29.6595 128.232 27.8936 128.232 25.6392V25.5534C128.232 23.1018 129.114 21.2245 130.87 19.9387C132.634 18.6529 134.944 18.01 137.807 18.01C140.107 18.01 142.287 18.3357 144.345 18.9872V18.4129C144.345 16.7842 143.844 15.5413 142.849 14.684C141.846 13.8268 140.41 13.3982 138.524 13.3982C136.379 13.3982 134.122 13.8868 131.761 14.8641L130.282 10.5609C133.205 9.25792 136.206 8.60645 139.277 8.60645C142.711 8.60645 145.297 9.46365 147.044 11.1781C148.791 12.8925 149.664 15.3355 149.664 18.4986V32.3939H149.673ZM144.432 23.9162V22.4503C142.823 21.8332 141.015 21.516 139.017 21.516C137.314 21.516 135.99 21.8503 135.03 22.5103C134.07 23.179 133.594 24.1048 133.594 25.2877V25.3734C133.594 26.4364 134.027 27.285 134.892 27.9022C135.757 28.5279 136.846 28.8365 138.161 28.8365C139.977 28.8365 141.482 28.3822 142.659 27.465C143.844 26.5478 144.432 25.3648 144.432 23.9162Z" fill="#1B0707"/>
<path d="M159.3 19.1671V32.3938H153.885V8.96636H159.3V12.6095C161.176 9.85786 163.641 8.48633 166.686 8.48633C169.315 8.48633 171.374 9.30068 172.861 10.9294C174.358 12.5581 175.102 14.7439 175.102 17.4956V32.4024H169.687V19.0814C169.687 17.247 169.246 15.8326 168.364 14.8468C167.482 13.8524 166.236 13.3638 164.627 13.3638C163.045 13.3638 161.765 13.8782 160.779 14.9154C159.793 15.944 159.3 17.367 159.3 19.1671Z" fill="#1B0707"/>
<path d="M202.64 32.3939H197.226V28.485C195.133 31.4166 192.452 32.8739 189.165 32.8739C186.207 32.8739 183.647 31.7681 181.467 29.5651C179.288 27.3621 178.198 24.3961 178.198 20.6673C178.198 16.9384 179.279 13.9725 181.441 11.7695C183.604 9.56643 186.181 8.46064 189.165 8.46064C192.391 8.46064 195.072 9.83217 197.226 12.5838V0H202.64V32.3939ZM195.297 26.1105C196.638 24.7047 197.313 22.896 197.313 20.6758C197.313 18.4557 196.638 16.647 195.297 15.2411C193.957 13.8353 192.339 13.1324 190.462 13.1324C188.551 13.1324 186.942 13.8182 185.628 15.1983C184.313 16.5698 183.656 18.4042 183.656 20.6758C183.656 22.9217 184.322 24.7476 185.645 26.1362C186.977 27.5249 188.577 28.2193 190.462 28.2193C192.339 28.2193 193.957 27.5163 195.297 26.1105Z" fill="#1B0707"/>
<path d="M235.723 34.3656L230.932 29.7024C230.568 29.351 229.98 29.351 229.626 29.711L229.608 29.7281L228.242 28.3995C229.98 26.2736 230.854 23.7877 230.854 20.9332C230.854 17.5901 229.678 14.7613 227.316 12.4383C224.955 10.1152 222.023 8.95801 218.503 8.95801C214.983 8.95801 212.042 10.1324 209.672 12.4897C207.302 14.8384 206.109 17.6844 206.109 21.0275C206.109 24.3363 207.276 27.1565 209.62 29.4795C211.964 31.8026 214.896 32.9684 218.408 32.9684C221.435 32.9684 224.021 32.1112 226.192 30.4139L227.584 31.7683L227.567 31.7854C227.212 32.1455 227.212 32.7284 227.576 33.0798L232.359 37.7516C232.722 38.1031 233.31 38.0945 233.665 37.743L235.715 35.6772C236.087 35.3 236.087 34.7171 235.723 34.3656ZM221.962 29.1281C220.873 29.591 219.714 29.8224 218.477 29.8224C217.24 29.8224 216.081 29.591 214.991 29.1281C213.902 28.6652 212.959 28.0309 212.154 27.2337C211.35 26.4365 210.71 25.5021 210.243 24.422C209.776 23.3419 209.542 22.1933 209.542 20.9675C209.542 19.7417 209.776 18.593 210.243 17.5129C210.71 16.4329 211.35 15.4985 212.154 14.7013C212.959 13.9041 213.902 13.2698 214.991 12.8069C216.081 12.344 217.24 12.1125 218.477 12.1125C219.714 12.1125 220.873 12.344 221.962 12.8069C223.052 13.2698 223.995 13.9041 224.799 14.7013C225.604 15.4985 226.244 16.4329 226.711 17.5129C227.178 18.593 227.411 19.7417 227.411 20.9675C227.411 22.1933 227.178 23.3419 226.711 24.422C226.244 25.5021 225.604 26.4365 224.799 27.2337C223.995 28.0309 223.052 28.6566 221.962 29.1281Z" fill="#1B0707"/>
<path d="M218.477 14.1099C216.557 14.1099 214.931 14.7785 213.582 16.1157C212.232 17.453 211.558 19.0731 211.558 20.9675C211.558 21.8076 211.696 22.6048 211.981 23.3506C212.267 24.0963 212.656 24.7564 213.158 25.3393C213.893 24.7821 214.715 24.3449 215.623 24.0192C216.531 23.6934 217.482 23.5391 218.477 23.5391C219.472 23.5391 220.423 23.702 221.331 24.0192C222.239 24.3363 223.061 24.7821 223.796 25.3393C224.298 24.7564 224.696 24.0878 224.972 23.3506C225.249 22.6134 225.396 21.8162 225.396 20.9675C225.396 19.0645 224.722 17.453 223.372 16.1157C222.032 14.7785 220.397 14.1099 218.477 14.1099ZM220.631 20.9504C220.051 21.5247 219.333 21.8162 218.477 21.8162C217.621 21.8162 216.911 21.5247 216.323 20.9504C215.735 20.376 215.45 19.6646 215.45 18.8159C215.45 17.9759 215.744 17.2644 216.323 16.6815C216.903 16.0986 217.621 15.8157 218.477 15.8157C219.333 15.8157 220.042 16.1072 220.631 16.6815C221.219 17.2558 221.504 17.9673 221.504 18.8159C221.504 19.6646 221.21 20.376 220.631 20.9504Z" fill="#1B0707"/>
</g>
<defs>
<clipPath id="clip0_23_16788">
<rect width="236" height="38" fill="white"/>
</clipPath>
</defs>
</svg>
