<svg width="254" height="439" viewBox="0 0 254 439" fill="none" xmlns="http://www.w3.org/2000/svg">
<path d="M58.3875 436.584C58.2791 437.432 57.5428 438.091 56.7428 438.056L43.707 437.476C42.9071 437.441 42.3465 436.724 42.4548 435.876C42.5632 435.027 43.2996 434.368 44.0995 434.404L55.6869 434.919L57.2569 422.631C57.3653 421.783 58.1016 421.124 58.9016 421.159C59.7015 421.195 60.2622 421.911 60.1538 422.76L58.3875 436.584ZM55.7761 437.56C18.072 389.37 2.63796 354.307 1.10485 328.285C0.335294 315.224 3.06754 304.421 8.25282 295.424C13.427 286.447 20.9783 279.379 29.6924 273.667C47.0649 262.279 69.3782 256.09 87.5492 250.935C96.6967 248.34 104.751 246.02 110.748 243.445C113.744 242.157 116.134 240.844 117.859 239.462C119.579 238.084 120.514 236.738 120.844 235.391L123.671 235.895C123.096 238.242 121.55 240.193 119.489 241.844C117.433 243.492 114.742 244.94 111.631 246.277C105.413 248.948 97.1478 251.321 88.061 253.899C69.7635 259.09 47.9508 265.168 31.0671 276.235C22.653 281.75 15.5438 288.456 10.7156 296.834C5.89859 305.192 3.28691 315.325 4.02268 327.814C5.50022 352.892 20.474 387.386 58.102 435.479L55.7761 437.56ZM120.844 235.391C121.551 232.514 120.346 229.513 117.011 226.293C113.706 223.101 108.601 219.998 102.355 216.97C89.8692 210.916 73.2874 205.37 58.56 200.002C51.2224 197.327 44.3469 194.696 38.733 192.08C33.1697 189.488 28.6555 186.828 26.2078 184.026C24.9749 182.615 24.126 181.011 24.1107 179.209C24.0949 177.344 24.9719 175.617 26.4872 174.078C27.9765 172.565 30.1636 171.14 33.0342 169.76C35.9216 168.372 39.5902 166.988 44.1168 165.596L44.6914 168.542C40.2511 169.907 36.7386 171.239 34.0388 172.537C31.3222 173.843 29.5163 175.072 28.4147 176.191C27.3392 177.284 27.0277 178.167 27.0339 178.897C27.0406 179.692 27.4242 180.669 28.4427 181.835C30.4979 184.187 34.5617 186.66 40.1179 189.249C45.6235 191.815 52.4089 194.413 59.7398 197.085C74.3492 202.411 91.1346 208.027 103.775 214.156C110.092 217.218 115.49 220.462 119.094 223.941C122.668 227.392 124.778 231.385 123.671 235.895L120.844 235.391ZM44.1168 165.596C80.0748 154.544 154.449 133.479 203.492 105.144C215.736 98.0692 226.332 90.5793 234.332 82.7303C242.339 74.8754 247.645 66.7611 249.512 58.4334C253.208 41.949 243.583 23.3973 210.856 3.25596L212.501 0.564821C245.32 20.7629 256.525 40.2697 252.355 58.8709C250.289 68.0861 244.489 76.7714 236.217 84.8865C227.939 93.0076 217.085 100.658 204.71 107.808C155.277 136.369 80.4688 157.545 44.6914 168.542L44.1168 165.596Z" fill="url(#paint0_linear_1_16803)"/>
<defs>
<linearGradient id="paint0_linear_1_16803" x1="23.2747" y1="253.86" x2="282.374" y2="202.185" gradientUnits="userSpaceOnUse">
<stop stop-color="#AB83FE"/>
<stop offset="1" stop-color="#FBAE96"/>
</linearGradient>
</defs>
</svg>
