<svg width="80" height="80" viewBox="0 0 80 80" fill="none" xmlns="http://www.w3.org/2000/svg">
<rect width="80" height="80" rx="40" fill="white"/>
<path d="M48.3089 31.7041H37.2212V10H48.3089C54.2926 10 59.1597 14.8672 59.1597 20.8508C59.1597 26.8345 54.2926 31.7041 48.3089 31.7041ZM40.7761 28.1492H48.3089C52.3326 28.1492 55.6048 24.8746 55.6048 20.8533C55.6048 16.8319 52.3302 13.5573 48.3089 13.5573H40.7761V28.1492ZM40.7761 31.7041H29.6909C23.7072 31.7041 18.8401 26.8369 18.8401 20.8533C18.8401 14.8696 23.7072 10 29.6909 10H40.7786V31.7041H40.7761ZM29.6909 13.5549C25.6671 13.5549 22.395 16.8295 22.395 20.8508C22.395 24.8722 25.6671 28.1492 29.6909 28.1492H37.2236V13.5549H29.6909ZM40.7761 49.8508H29.6909C23.7072 49.8508 18.8401 44.9837 18.8401 39C18.8401 33.0163 23.7072 28.1492 29.6909 28.1492H40.7786V49.8508H40.7761ZM29.6909 31.7041C25.6671 31.7041 22.395 34.9787 22.395 39C22.395 43.0213 25.6696 46.2959 29.6909 46.2959H37.2236V31.7041H29.6909ZM29.7489 68C23.7338 68 18.8376 63.1328 18.8376 57.1492C18.8376 51.1655 23.7048 46.2983 29.6885 46.2983H40.7761V57.0308C40.7761 63.0797 35.8292 68 29.7489 68ZM29.6909 49.8508C27.7567 49.8534 25.9024 50.6229 24.5347 51.9906C23.167 53.3583 22.3975 55.2125 22.395 57.1468C22.395 61.1705 25.6937 64.4427 29.7513 64.4427C33.8717 64.4427 37.2261 61.1173 37.2261 57.0283V49.8508H29.6909ZM48.3089 49.8508H48.0721C42.0884 49.8508 37.2212 44.9837 37.2212 39C37.2212 33.0163 42.0884 28.1492 48.0721 28.1492H48.3089C54.2926 28.1492 59.1597 33.0163 59.1597 39C59.1597 44.9837 54.2926 49.8508 48.3089 49.8508ZM48.0745 31.7041C44.0507 31.7041 40.7786 34.9787 40.7786 39C40.7786 43.0213 44.0531 46.2959 48.0745 46.2959H48.3113C52.3351 46.2959 55.6072 43.0213 55.6072 39C55.6072 34.9787 52.3302 31.7041 48.3089 31.7041H48.0745Z" fill="#BF91FA"/>
</svg>
