<svg width="322" height="314" viewBox="0 0 322 314" fill="none" xmlns="http://www.w3.org/2000/svg">
<path d="M250 207.5L249.853 208.993L250 207.5ZM8.76042 312.845C9.22691 313.529 10.1601 313.706 10.8447 313.24L22.0009 305.638C22.6855 305.171 22.8623 304.238 22.3958 303.553C21.9293 302.869 20.9961 302.692 20.3115 303.159L10.3949 309.916L3.63766 299.999C3.17117 299.315 2.23803 299.138 1.55343 299.604C0.868826 300.071 0.692014 301.004 1.15851 301.688L8.76042 312.845ZM315.503 0.900668C314.672 13.4213 316.254 33.2862 317.524 55.6375C318.799 78.0732 319.773 103.153 317.782 126.357C315.788 149.598 310.834 170.735 300.419 185.432C295.23 192.756 288.692 198.471 280.478 202.072C272.26 205.674 262.277 207.199 250.147 206.007L249.853 208.993C262.397 210.225 272.91 208.665 281.683 204.819C290.459 200.971 297.406 194.874 302.867 187.167C313.753 171.804 318.764 150.009 320.771 126.613C322.782 103.179 321.795 77.9151 320.519 55.4673C319.239 32.9351 317.682 13.3765 318.497 1.09933L315.503 0.900668ZM250.147 206.007C210.835 202.145 156.494 197.017 109.002 208.572C85.2285 214.355 63.0897 224.336 45.3902 240.813C27.675 257.304 14.4945 280.223 8.52622 311.721L11.4738 312.279C17.3344 281.349 30.2298 259.025 47.4344 243.009C64.6548 226.978 86.2796 217.187 109.711 211.487C156.627 200.072 210.458 205.122 249.853 208.993L250.147 206.007Z" fill="url(#paint0_linear_103_242)"/>
<defs>
<linearGradient id="paint0_linear_103_242" x1="97.8266" y1="26.6567" x2="373.984" y2="212.847" gradientUnits="userSpaceOnUse">
<stop stop-color="#FFC787"/>
<stop offset="1" stop-color="#E0A6F4"/>
</linearGradient>
</defs>
</svg>
