<svg width="680" height="488" viewBox="0 0 680 488" fill="none" xmlns="http://www.w3.org/2000/svg">
<path d="M7.19012 486.731C7.59378 487.454 8.50746 487.714 9.23089 487.31L21.0199 480.732C21.7433 480.328 22.0025 479.415 21.5988 478.691C21.1952 477.968 20.2815 477.708 19.5581 478.112L9.07899 483.959L3.23186 473.48C2.82819 472.757 1.91451 472.497 1.19108 472.901C0.467649 473.305 0.208426 474.219 0.612087 474.942L7.19012 486.731ZM676.507 -0.00574994C674.824 16.9367 664.128 44.4585 646.741 76.3456C629.387 108.172 605.468 144.167 577.52 178.01C549.569 211.858 517.623 243.51 484.227 266.688C450.815 289.877 416.075 304.5 382.5 304.5V307.5C416.925 307.5 452.264 292.523 485.937 269.152C519.625 245.772 551.768 213.906 579.833 179.921C607.903 145.931 631.93 109.777 649.375 77.7818C666.788 45.8471 677.745 17.874 679.493 0.290906L676.507 -0.00574994ZM382.5 304.5C300.325 304.5 218.898 306.028 151.838 329.396C84.6378 352.812 31.8616 398.161 7.05695 485.591L9.94305 486.409C34.4574 400.004 86.4641 355.353 152.825 332.228C219.327 309.055 300.241 307.5 382.5 307.5V304.5Z" fill="url(#paint0_linear_1_16889)"/>
<defs>
<linearGradient id="paint0_linear_1_16889" x1="197.921" y1="40.2245" x2="662.11" y2="472.288" gradientUnits="userSpaceOnUse">
<stop stop-color="#FFC787"/>
<stop offset="1" stop-color="#E0A6F4"/>
</linearGradient>
</defs>
</svg>
