<svg xmlns="http://www.w3.org/2000/svg" width="728" height="141" viewBox="0 0 728 141" fill="none">
<path d="M2.30835 70.5049C10.6791 44.2381 33.8932 33.2179 61.23 32.2602C86.7649 31.3657 116.635 39.0779 140.518 47.3404C259.358 88.4542 133.856 176.041 141.14 89.1608C142.861 68.6254 154.391 53.7102 167.569 38.7898C187.443 16.2879 208.079 12.9059 237.373 10.8059C288.687 7.1274 326.388 22.8502 353.506 72.9923C380.737 123.344 318.025 121.062 318.526 86.9843C318.922 60.0929 351.411 15.5752 379.158 7.23018C403.982 -0.235749 447.868 -1.17997 472.515 10.495C495.63 21.4441 512.266 48.6865 524.674 70.1939C532.372 83.5361 535.686 104.869 525.996 118.311C504.238 148.491 460.582 145.562 462.643 105.018C463.417 89.8008 474.646 73.1437 484.409 61.9542C495.088 49.7134 505.075 39.4515 521.409 29.1509C590.081 -14.1546 700.342 35.412 725.692 67.7065" stroke="url(#paint0_linear_1_16949)" stroke-width="3" stroke-linecap="round"/>
<defs>
<linearGradient id="paint0_linear_1_16949" x1="639.802" y1="70.0968" x2="2.30835" y2="70.0968" gradientUnits="userSpaceOnUse">
<stop stop-color="#A9FE81"/>
<stop offset="1" stop-color="#C0F0FF"/>
</linearGradient>
</defs>
</svg>