<svg width="425" height="457" viewBox="0 0 425 457" fill="none" xmlns="http://www.w3.org/2000/svg">
<path d="M74.4352 452.836C74.4887 453.674 73.8791 454.463 73.0737 454.597L59.9477 456.79C59.1422 456.924 58.4458 456.354 58.3923 455.515C58.3388 454.677 58.9484 453.888 59.7538 453.754L71.4214 451.805L70.6461 439.661C70.5926 438.823 71.2022 438.034 72.0076 437.9C72.8131 437.765 73.5095 438.336 73.563 439.174L74.4352 452.836ZM128.366 111.983L126.925 111.865L128.366 111.983ZM72.014 454.325C28.046 418.301 7.28161 390.76 1.70545 366.565C-3.91792 342.166 5.96464 321.528 22.0376 299.784C54.2313 256.231 111.551 207.495 126.925 111.865L129.806 112.101C114.258 208.818 55.9963 258.622 24.2824 301.526C8.40164 323.011 -0.751093 342.581 4.55055 365.584C9.89939 388.793 30.0202 415.849 73.9395 451.834L72.014 454.325ZM126.925 111.865C134.337 65.7628 149.872 43.5709 171.23 34.7933C181.806 30.4467 193.639 29.4724 206.295 30.3151C218.952 31.158 232.548 33.8285 246.677 36.8625C275.017 42.9485 305.527 50.4896 335.741 48.1938C365.839 45.9067 395.6 33.8522 422.442 0.649259L424.594 2.51118C397.109 36.5096 366.5 48.9187 335.681 51.2605C304.977 53.5936 274.02 45.929 245.842 39.8779C231.711 36.8434 218.284 34.2124 205.843 33.3839C193.4 32.5553 182.057 33.5396 172.068 37.6446C152.297 45.7702 137.145 66.4533 129.806 112.101L126.925 111.865Z" fill="url(#paint0_linear_1_16874)"/>
<defs>
<linearGradient id="paint0_linear_1_16874" x1="289.866" y1="30.9832" x2="9.14954" y2="438.731" gradientUnits="userSpaceOnUse">
<stop stop-color="#FFC787"/>
<stop offset="1" stop-color="#E0A6F4"/>
</linearGradient>
</defs>
</svg>
